PathFileType	4	(X/Y/Z)	56_2_33_p1_0-232_filt_butterworth.trc
DataRate	CameraRate	NumFrames	NumMarkers	Units	OrigDataRate	OrigDataStartFrame	OrigNumFrames
60.0	60.0	5	27	m	60.0	203	232
Frame#	Time	RHip			RKnee			RAnkle			RBigToe			RSmallToe			RHeel			LHip			LKnee			LAnkle			LBigToe			LSmallToe			LHeel			Neck			Head			Nose			RShoulder			RElbow			RWrist			RThumb			RIndex			RPinky			LShoulder			LElbow			LWrist			LThumb			LIndex			LPinky			
		X1	Y1	Z1	X2	Y2	Z2	X3	Y3	Z3	X4	Y4	Z4	X5	Y5	Z5	X6	Y6	Z6	X7	Y7	Z7	X8	Y8	Z8	X9	Y9	Z9	X10	Y10	Z10	X11	Y11	Z11	X12	Y12	Z12	X13	Y13	Z13	X14	Y14	Z14	X15	Y15	Z15	X16	Y16	Z16	X17	Y17	Z17	X18	Y18	Z18	X19	Y19	Z19	X20	Y20	Z20	X21	Y21	Z21	X22	Y22	Z22	X23	Y23	Z23	X24	Y24	Z24	X25	Y25	Z25	X26	Y26	Z26	X27	Y27	Z27	
203	3.3833333333333333	0.49026625122519113	0.3977015663238999	0.9841351227883337	0.5089670562583947	0.026862869460032746	0.9782292832392523	0.5119829663622928	-0.4162799561953151	0.9929394626941251	0.4177616424429267	-0.40252133613490826	0.785661623596085	0.4946981765056324	-0.40883840170421765	0.7820454572076586	0.5098058852518252	-0.4738399473673156	1.050643603925817	0.29673219339433066	0.36878755573473915	1.0729660926945175	0.3128849744814466	0.014015623487234674	1.0433632969041815	0.32411284090313747	-0.36230856901307207	1.0326459551486615	0.25684825264651423	-0.3764390436322951	0.8072606625966608	0.22067273107281085	-0.403893541990341	0.8799501221520734	0.35257295154456353	-0.4365443890675074	1.0696829175431588	0.3555576266517184	0.9854740642008928	1.0395274018924443	0.3327359143595707	1.2371858667242133	1.013730335304693	0.3081301052785373	1.112253032989604	0.9387752325694962	0.5303060468468936	0.8904294135672858	0.9930499140284479	0.5764729291557035	0.6369067116827951	0.8919086365643156	0.567871001079545	0.39105138841699905	0.8224887237461458	0.5199919798898475	0.273842468316659	0.8185339439468682	0.5263092139673871	0.2756426891703779	0.7842679351477013	0.5733360686340384	0.2569868949345686	0.8336543753235947	0.2162983963492744	0.8790758899359339	1.1065047027614365	0.17163411067776094	0.5864404273357278	1.1144289838242918	0.15963385951987874	0.3745929789464322	0.994128061692402	0.1969123331870128	0.30259441061021564	0.9230981420774627	0.1844912555858625	0.2689877818971134	0.9134250211498274	0.14127429778162054	0.26100324039682254	0.966288650591021	
204	3.4	0.4901574136376876	0.3954969993345098	0.9842644563392221	0.5090865029631904	0.028354927691148057	0.9784736430309735	0.5121096840497019	-0.41538949698674904	0.9927909073174938	0.42005636043146605	-0.40424246990792306	0.7872169707388019	0.4960406199235342	-0.40970354710732787	0.7839692719335891	0.5098164442268664	-0.4731620993870351	1.0504070367742118	0.2964466875897749	0.36756656879059074	1.0735995945103902	0.31237732316542105	0.014552454780740465	1.0431914302279401	0.3240503297094959	-0.36227930272798226	1.0325917444567652	0.2572401816015292	-0.3793208229925881	0.8108399775940057	0.22182444867306128	-0.4059065824915045	0.8815687961478236	0.3529512985844841	-0.43613465151194064	1.0701736029254207	0.3570399527218808	0.9853376131921189	1.0419222974917943	0.33416908917108534	1.2373304116749724	1.015854987653024	0.3091054702577621	1.1120219486699572	0.9398922483448007	0.5302968053198855	0.8904245718950865	0.9930309272928943	0.5709411648830067	0.6356600873844346	0.8899712127054922	0.5564526036402179	0.3920713978402033	0.816557958528854	0.5112090286928795	0.2721353536197512	0.8198835350811023	0.5198437425813257	0.27261058827050594	0.7863032743510106	0.5599833825411371	0.2581071260439823	0.8298971855312338	0.21768672349620585	0.877443387192968	1.1116907492587393	0.17268731110078706	0.5863843278185361	1.1125787457343042	0.16465310399680835	0.3798691039850648	0.9827786299904526	0.19855877523740367	0.31423268686551137	0.9032984513381564	0.18714625429188994	0.2812740224143499	0.8943187622431299	0.14796582444417924	0.26658785045277616	0.9479053077387627	
205	3.4166666666666665	0.49010876034950335	0.39385763244640964	0.9841710939097593	0.5090270272860702	0.03003299774613538	0.978631770505106	0.5120683509730058	-0.4145772305127437	0.9929096510956504	0.42188790382282604	-0.4050871467705524	0.7877040433134835	0.49768972825696955	-0.4109564011584508	0.7861993660795882	0.5097294410526848	-0.47281400562215387	1.0507186418146615	0.2959466432863384	0.3669039243779526	1.0740158650423426	0.31191573650707566	0.015135197630625818	1.0431445956179348	0.3240174192102664	-0.3622362930621875	1.0325510225590044	0.25756243762120745	-0.3816880603235532	0.8139199289867101	0.22292757435461763	-0.40816509076795227	0.8837755543515645	0.3534199575105983	-0.43541695862460617	1.070724762343239	0.3584278341721352	0.9851047554134593	1.0450767115628459	0.33550639939019267	1.2372006754571916	1.0177202664042024	0.310333679543068	1.1116418697448445	0.9416908021568378	0.5303144807118677	0.8904239204183377	0.9930461105615431	0.5662164141059787	0.6340002632965107	0.8883197661223858	0.5453289635275217	0.39285211268783454	0.8110043408039342	0.4991819106294616	0.27289200140240144	0.8189411875255803	0.5105866241616104	0.27007346569649304	0.79060422455886	0.5470099706696608	0.2584842006325274	0.8288124572379454	0.2191541760660267	0.876132503998279	1.116895799638818	0.1738802487855918	0.5867008838501928	1.1086821581683663	0.17013442684071872	0.3852901433818662	0.9705373069063148	0.2013415724796052	0.32625918226162237	0.882081742463114	0.19050573951425898	0.29418302748339886	0.8736747961081308	0.15666074948455996	0.2702363513679291	0.9287353476361165	
206	3.433333333333333	0.4901237374940903	0.3929484511907972	0.9841241923545471	0.5088066201308178	0.03192231282166369	0.9787296726136268	0.5118838790185236	-0.41389602672645853	0.9932198638618416	0.42328122594409273	-0.4052691817748427	0.787405187567919	0.49959894886184286	-0.4127499670224705	0.7886889211011119	0.5096360653725874	-0.47281539140556045	1.0515587125407455	0.2952387829790048	0.3667680565554116	1.0741418780595635	0.31150491148599263	0.015796365812658975	1.043155363369096	0.3240112828612355	-0.3621799123531244	1.032523970675283	0.25771932457367547	-0.3830837159113577	0.8161007988401832	0.22373092758372376	-0.4104449555714292	0.886373179625627	0.35390501909794003	-0.4344872753407325	1.0712635245293998	0.3595467270469803	0.9846659427582911	1.0487141653160768	0.3365361504426311	1.2368248947789073	1.0190773529795745	0.3120878188272901	1.1110801388330556	0.944351682492877	0.5303686610167547	0.8904512690213577	0.9931341718158131	0.5626823716920495	0.6322133732661859	0.8869084238101563	0.5349973888353607	0.39349151017986034	0.8065613749376876	0.4846091917228401	0.2759492372371597	0.8152479417257813	0.4985997417465968	0.26854465992039006	0.7964783743914323	0.5350765165087268	0.25742881434549936	0.831360528174792	0.2205009332273441	0.8755607393629921	1.1214375304032311	0.17491568670657748	0.5873314620442655	1.1035697661186998	0.17546462917756026	0.39162535005376736	0.9560142305413781	0.2060362863152253	0.33785699707270095	0.8602735796696945	0.19503160871369712	0.30775984183434135	0.851763494963446	0.16595370408859478	0.273538623955481	0.9080930169568678	
207	3.45	0.4901285983617025	0.3927497360984136	0.9842665224125335	0.5084608073915473	0.03401241238153524	0.9787095899886455	0.5116190815625228	-0.4131942730789359	0.9935190977584729	0.4242755715254552	-0.40519822699294983	0.786843492240487	0.5013839940560708	-0.4146154348056954	0.7909663533389595	0.509615935347486	-0.4730427216329901	1.0527182628974645	0.2943753693854865	0.3670904292711488	1.0738638928897148	0.31114500962813946	0.016551822768844426	1.0432104135946443	0.32402158976759843	-0.36211408445219906	1.0325160950181829	0.257672748471212	-0.3832769992428787	0.8171873793696162	0.22413452490360547	-0.41245332528284223	0.8890935796336799	0.35433386245916065	-0.43343278952088776	1.0717455316951268	0.3602550888627457	0.9840582725864554	1.0523572495850808	0.3371095292179872	1.2363067540889476	1.0197796382243507	0.3142802892372438	1.1104089920453428	0.947590897226046	0.530491244070717	0.8904447038137825	0.9933577782374852	0.5603372793921624	0.6305470613133988	0.88548418283584	0.525279362779943	0.3941866867068377	0.8036610411642148	0.4685992320153173	0.2802823215862145	0.8096960509317058	0.4845875589024103	0.2681800896207755	0.8024301388992556	0.5242925919613739	0.25460667782579643	0.8382014089919977	0.22152380609698363	0.8759474095302291	1.1246801492684604	0.1755259961443872	0.5882000516526252	1.0982475310791977	0.18012205867503092	0.3993351213401365	0.9389063371772137	0.21371132195287185	0.34818480835076016	0.8403232791408788	0.20127161433194685	0.32149303311863625	0.8303689073357807	0.1750275269451759	0.2793032914181222	0.884791261532657	
